<?xml version="1.0" standalone="no"?>
<!DOCTYPE svg PUBLIC "-//W3C//DTD SVG 20010904//EN"
 "http://www.w3.org/TR/2001/REC-SVG-20010904/DTD/svg10.dtd">
<svg version="1.0" xmlns="http://www.w3.org/2000/svg"
 width="754.000000pt" height="718.000000pt" viewBox="0 0 754.000000 718.000000"
 preserveAspectRatio="xMidYMid meet">
<metadata>
Created by potrace 1.16, written by Peter Selinger 2001-2019
</metadata>
<g transform="translate(0.000000,718.000000) scale(0.100000,-0.100000)"
fill="#000000" stroke="none">
<path d="M1539 5313 c-23 -6 -29 -33 -29 -136 0 -56 -7 -115 -21 -165 -24 -89
-95 -242 -113 -242 -7 0 -30 13 -52 30 -91 69 -224 4 -224 -109 0 -25 -8 -36
-39 -55 -54 -35 -81 -76 -81 -125 0 -31 -5 -44 -22 -55 -28 -17 -112 -35 -198
-42 -85 -7 -100 -21 -100 -91 0 -29 4 -53 9 -53 4 0 11 -35 14 -77 3 -43 10
-91 16 -108 5 -16 17 -64 27 -105 10 -41 29 -104 43 -140 22 -55 30 -65 53
-68 41 -5 47 34 16 116 -39 104 -57 178 -78 319 -18 124 -18 124 99 143 31 5
76 13 101 19 40 9 49 7 83 -15 37 -24 37 -24 37 -95 l0 -71 54 -52 c53 -51 54
-52 49 -98 -8 -66 3 -111 35 -146 45 -51 94 -72 168 -72 62 0 66 -2 97 -37 35
-40 130 -90 190 -100 35 -5 41 -11 61 -58 28 -61 82 -119 133 -140 52 -22 144
-19 197 5 55 26 88 62 123 130 26 51 31 54 82 67 65 16 113 44 164 95 36 36
42 38 101 38 138 0 228 94 212 224 -6 52 -5 54 27 76 55 38 77 81 77 152 1 60
2 64 34 84 28 18 41 20 72 13 41 -9 64 -13 158 -31 l59 -11 -7 -81 c-3 -45 -8
-88 -10 -96 -1 -8 -6 -33 -11 -55 -15 -79 -36 -155 -57 -205 -6 -14 -14 -34
-18 -45 -16 -45 -94 -200 -102 -203 -4 -2 -8 -8 -8 -14 0 -8 -56 -94 -70 -108
-3 -3 -21 -25 -40 -50 -49 -65 -185 -199 -255 -251 -80 -61 -231 -151 -370
-223 -33 -17 -61 -34 -63 -38 -2 -5 -8 -8 -13 -8 -5 0 -37 -17 -72 -37 -110
-67 -115 -69 -140 -53 -12 7 -47 27 -77 43 -30 16 -59 33 -65 37 -13 10 -74
45 -155 88 -238 126 -339 199 -492 354 -77 79 -94 88 -116 66 -23 -23 -11 -48
56 -119 97 -104 244 -220 365 -288 68 -39 102 -58 155 -90 29 -17 54 -31 56
-31 5 0 217 -119 239 -135 39 -27 82 -18 180 38 51 28 106 59 122 67 17 8 32
17 35 20 3 3 23 15 45 26 22 12 60 34 85 48 25 15 53 29 63 33 9 3 17 9 17 14
0 5 5 9 11 9 6 0 30 14 54 30 24 17 46 30 49 30 14 0 170 127 237 193 168 165
322 416 379 622 5 17 14 48 20 70 39 140 63 393 39 411 -8 6 -57 16 -111 22
-53 7 -113 18 -135 24 -33 12 -38 17 -41 48 -4 55 -39 113 -83 140 -21 14 -40
33 -40 42 -6 83 -55 144 -124 155 -46 7 -77 -2 -114 -33 -17 -14 -38 -24 -46
-21 -20 8 -91 161 -109 237 -9 36 -20 116 -24 178 -6 78 -13 117 -23 122 -13
9 -819 12 -850 3z m778 -77 c9 -4 13 -24 13 -61 l0 -55 -78 0 c-74 0 -79 -2
-92 -25 -21 -39 -2 -49 97 -55 l86 -5 14 -50 c17 -56 22 -70 52 -137 12 -26
21 -50 21 -53 0 -3 5 -11 10 -18 6 -7 23 -32 39 -55 15 -24 54 -73 87 -109 58
-65 59 -67 60 -129 1 -62 0 -64 -39 -95 -44 -36 -67 -81 -67 -135 0 -38 -22
-74 -45 -74 -18 0 -79 -61 -93 -93 -24 -57 -12 -164 23 -189 32 -23 -95 -127
-162 -131 -35 -2 -39 1 -61 42 -97 184 -344 183 -438 -1 -13 -26 -28 -49 -32
-52 -25 -15 -176 70 -187 105 -4 12 2 39 14 64 27 57 27 113 0 168 -19 40 -35
54 -111 101 -26 15 -28 22 -28 76 0 33 -4 60 -10 60 -5 0 -10 5 -10 11 0 13
-17 30 -52 53 -26 17 -28 23 -28 89 l0 70 53 57 c74 80 120 145 154 220 29 65
42 99 54 140 7 25 17 50 22 57 5 7 41 13 89 15 64 2 83 7 92 21 8 12 8 22 0
35 -9 13 -28 18 -87 20 -86 3 -92 9 -81 78 4 27 12 44 22 46 26 5 684 -1 699
-6z m-1148 -670 c15 -8 33 -21 40 -30 20 -24 16 -74 -8 -100 -46 -49 -110 -41
-138 18 -14 30 -14 39 -3 66 8 19 26 38 44 46 39 16 32 17 65 0z m1668 -8 c7
-6 19 -23 27 -40 14 -26 13 -32 -3 -61 -33 -59 -90 -69 -138 -25 -25 23 -30
66 -13 98 23 42 90 57 127 28z m-80 -259 c18 -35 16 -63 -8 -93 -43 -55 -149
-22 -149 46 0 42 17 68 53 83 40 16 86 1 104 -36z m-1456 10 c34 -37 36 -53 9
-96 -18 -30 -24 -33 -68 -33 -61 0 -86 23 -84 78 3 78 89 109 143 51z m126
-209 c39 -24 59 -83 42 -126 -18 -48 -47 -68 -101 -68 -39 0 -53 5 -78 29 -25
24 -30 36 -30 74 1 92 88 140 167 91z m1216 -20 c25 -28 29 -39 24 -75 -5 -48
-28 -78 -72 -95 -83 -32 -169 48 -143 132 25 82 133 103 191 38z m-586 -246
c44 -33 63 -73 63 -129 0 -91 -64 -155 -153 -155 -128 0 -202 119 -145 230 45
88 157 114 235 54z"/>
<path d="M5230 5068 c-167 -74 -262 -135 -382 -247 -171 -158 -311 -400 -339
-586 -20 -131 -15 -202 23 -285 25 -55 84 -130 104 -130 8 0 14 -4 14 -10 0
-5 4 -10 10 -10 5 0 -5 21 -24 48 -61 84 -71 123 -70 257 1 136 22 213 95 359
33 66 118 198 139 216 3 3 20 24 38 47 102 131 308 293 432 339 30 11 32 13
10 13 -14 0 -36 -5 -50 -11z"/>
<path d="M5986 4847 c-107 -90 -339 -427 -431 -629 -14 -31 -32 -62 -41 -69
-10 -8 -13 -21 -9 -40 3 -15 1 -30 -4 -34 -14 -8 -14 -130 -1 -156 17 -31 25
-22 27 29 2 81 108 327 166 390 17 17 33 44 35 60 3 27 68 135 135 227 20 28
48 66 62 85 15 19 51 61 81 92 51 53 61 78 31 78 -7 0 -29 -15 -51 -33z"/>
<path d="M4855 4500 c10 -50 52 -99 110 -128 28 -13 58 -29 67 -33 10 -5 26
-9 35 -9 24 0 87 -23 105 -38 8 -6 17 -9 20 -6 3 3 15 -7 27 -22 11 -15 21
-21 21 -14 0 24 -50 79 -88 96 -61 27 -75 32 -127 48 -77 25 -128 58 -147 94
-24 48 -31 52 -23 12z"/>
<path d="M5281 4408 c47 -39 73 -159 52 -242 -23 -89 -75 -177 -148 -253 -39
-40 -69 -73 -67 -73 13 0 75 51 122 100 97 100 151 245 127 340 -16 59 -50
116 -79 130 -19 9 -20 9 -7 -2z"/>
<path d="M5801 3506 c-22 -49 -27 -86 -11 -86 6 0 10 -7 10 -15 0 -8 9 -34 19
-58 11 -23 28 -67 40 -99 11 -31 29 -76 39 -100 11 -23 30 -69 42 -100 22 -57
23 -58 61 -58 51 0 50 8 -5 135 -8 17 -26 62 -40 100 -15 39 -31 80 -37 93
-19 46 -32 78 -39 97 -10 27 -25 63 -43 103 l-14 33 -22 -45z"/>
<path d="M4257 3533 c-4 -3 -7 -124 -7 -268 0 -190 -3 -264 -12 -273 -8 -8 -8
-12 -1 -12 20 0 79 65 91 101 8 23 12 107 12 247 l0 212 -38 0 c-21 0 -42 -3
-45 -7z"/>
<path d="M5130 3534 c0 -6 15 -34 95 -179 92 -166 85 -144 85 -260 l0 -106 38
3 37 3 3 133 c2 81 -1 132 -7 132 -6 0 -18 17 -28 38 -9 20 -19 39 -22 42 -4
3 -13 19 -21 35 -8 17 -17 32 -20 35 -3 3 -19 32 -37 65 -30 59 -32 60 -77 63
-25 2 -46 0 -46 -4z"/>
<path d="M4583 3474 c-66 -67 -88 -130 -80 -235 4 -66 10 -87 36 -127 30 -47
79 -97 87 -89 2 2 -3 24 -11 48 -34 96 -28 336 11 410 24 48 9 45 -43 -7z"/>
<path d="M4890 3515 c0 -3 6 -18 14 -33 46 -89 45 -349 0 -434 -22 -40 3 -37
43 5 52 54 77 114 81 194 5 89 -15 154 -64 212 -33 38 -74 69 -74 56z"/>
<path d="M6196 3463 c-22 -49 -17 -134 8 -162 9 -10 65 -43 125 -75 61 -32
117 -66 126 -76 9 -10 19 -37 22 -60 l6 -41 18 28 c26 39 24 102 -3 143 -17
24 -53 49 -127 86 -129 65 -144 79 -151 146 l-5 53 -19 -42z"/>
</g>
</svg>
